:SAMPLES-PER-SECOND 30
:FULLY-SPECIFIED
:DEGREES
186
root  49.0755 38.3228 22.1926 177.444 34.6136 -175.057
RightUpLeg  -16.7876 -9.59566 -3.84179
RightLeg  17.5914 4.83088 1.63079
RightFoot  5.9942 -0.938927 6.39435
RightToes  -5.8209e-011 0 -3.6325e-017
Spine  4.27281 -1.23748 9.03554
Spine1  9.01269 -0.516461 -1.80362
HEad  35.8851 20.8536 -178.346
LeftShoulder1  7.21679 -10.123 -46.1721
LeftArm  -9.10789 10.0488 -30.8569
LeftForeArm  28.9094 -30.6932 -5.07521
LeftHand  -0.244104 0.0205437 5.32207
RightShoulder  5.84348 8.71045 41.6026
RightArm  -5.28062 -15.1535 27.1843
RightForeArm  18.2701 6.11864 6.42867
RightHand  -0.298228 -1.44891 -8.65379
LeftUpLeg  12.8401 -2.62901 1.20681
LeftLeg  30.8251 0.754874 0.82055
LeftFoot  -18.2851 -0.0831984 -3.52427
LeftToes  1.76439e-010 -1.07097e-011 2.32476e-011
187
root  50.2094 38.3716 21.4601 178.277 32.2726 -173.924
RightUpLeg  -15.932 -11.3136 -2.51995
RightLeg  20.724 4.03928 1.48086
RightFoot  1.58947 -0.601313 5.43436
RightToes  -5.8209e-011 0 -3.6325e-017
Spine  4.17634 -1.3226 10.7532
Spine1  9.03701 -0.443588 -1.41146
HEad  35.6107 20.3223 -178.523
LeftShoulder1  7.19624 -10.0489 -46.2948
LeftArm  -9.53127 11.5691 -31.2289
LeftForeArm  25.3459 -24.257 -3.97239
LeftHand  -0.244104 0.0205437 5.32207
RightShoulder  5.82725 8.77746 41.2346
RightArm  -4.30102 -13.4638 27.3695
RightForeArm  17.6759 7.21146 6.80455
RightHand  -0.306018 -1.41039 -8.80383
LeftUpLeg  7.42041 -2.71414 3.79923
LeftLeg  41.2626 1.04189 1.40291
LeftFoot  -8.39994 0.150096 -5.33006
LeftToes  1.76439e-010 -1.07097e-011 2.32476e-011
188
root  51.2264 38.4429 20.7942 178.934 29.2603 -173.157
RightUpLeg  -14.427 -14.0681 -1.72066
RightLeg  22.066 3.49399 1.49544
RightFoot  -1.15186 -0.526358 5.82028
RightToes  -5.8209e-011 0 -3.6325e-017
Spine  4.56522 -1.4385 12.0632
Spine1  8.68359 -0.332235 -0.977493
HEad  35.7507 20.7542 -178.331
LeftShoulder1  7.18903 -10.0975 -46.0779
LeftArm  -10.0614 12.8788 -31.3224
LeftForeArm  23.3825 -18.2487 -3.88628
LeftHand  -0.244104 0.0205437 5.32207
RightShoulder  5.81565 8.86211 40.8412
RightArm  -2.29838 -12.1549 27.5801
RightForeArm  15.7875 9.638 7.14286
RightHand  -0.294245 -1.59198 -8.84146
LeftUpLeg  0.298529 -2.46015 5.81554
LeftLeg  51.5681 2.31557 3.62801
LeftFoot  2.72757 0.322513 -2.82162
LeftToes  1.76439e-010 -1.07097e-011 2.32476e-011
189
root  52.1617 38.5911 20.1129 179.031 26.8328 -172.9
RightUpLeg  -12.2379 -15.8014 -1.72103
RightLeg  22.2448 2.95159 1.81807
RightFoot  -3.00888 -0.497548 6.53701
RightToes  -5.8209e-011 0 -3.6325e-017
Spine  5.45175 -1.20652 13.3839
Spine1  8.2151 0.377995 -1.49998
HEad  36.3165 21.5892 -178.173
LeftShoulder1  7.23148 -10.2369 -45.8748
LeftArm  -11.0248 14.1979 -30.6517
LeftForeArm  24.1878 -13.7066 -4.63879
LeftHand  -0.244104 0.0205437 5.32207
RightShoulder  5.86373 8.97221 40.8135
RightArm  1.31427 -11.0706 27.3943
RightForeArm  11.4388 13.1279 6.96831
RightHand  -0.287832 -1.83696 -9.2092
LeftUpLeg  -6.03264 -0.994452 6.85422
LeftLeg  59.0307 3.61806 7.01382
LeftFoot  7.54085 -0.0685094 0.238819
LeftToes  1.76439e-010 -1.07097e-011 2.32476e-011
190
root  53.0924 38.8736 19.3522 178.663 25.4473 -173.583
RightUpLeg  -9.26202 -16.1162 -2.64632
RightLeg  21.0579 2.17247 2.22658
RightFoot  -4.85531 -0.420026 6.81076
RightToes  -5.8209e-011 0 -3.6325e-017
Spine  6.12523 -0.548615 13.7588
Spine1  7.96091 1.45541 -2.82252
HEad  37.0836 22.0081 -178.101
LeftShoulder1  7.27474 -10.3315 -45.8337
LeftArm  -10.6877 15.9715 -29.5441
LeftForeArm  25.5054 -11.2523 -5.07456
LeftHand  -0.244104 0.0205437 5.32207
RightShoulder  5.89222 9.07538 40.6645
RightArm  4.56652 -9.72813 27.3926
RightForeArm  6.90489 16.3673 6.23266
RightHand  -0.289041 -2.09725 -9.95787
LeftUpLeg  -10.8876 2.1123 6.47827
LeftLeg  62.4532 4.08736 9.02811
LeftFoot  5.56023 -0.236009 1.33739
LeftToes  1.76439e-010 -1.07097e-011 2.32476e-011
